<?xml version="1.0" encoding="UTF-8"?>
<svg width="299px" height="59px" viewBox="0 0 299 59" version="1.1" xmlns="http://www.w3.org/2000/svg" xmlns:xlink="http://www.w3.org/1999/xlink">
    <!-- Generator: Sketch 46.2 (44496) - http://www.bohemiancoding.com/sketch -->
    <title>Group@1x</title>
    <desc>Created with Sketch.</desc>
    <defs></defs>
    <g id="Page-2" stroke="none" stroke-width="1" fill="none" fill-rule="evenodd">
        <g id="Group">
            <polygon id="Fill-69" fill="#EB4724" points="22.5322 17.6039 50.9432 17.6039 51.8562 14.1949 23.4462 14.1949"></polygon>
            <polygon id="Fill-70" fill="#EB4724" points="15.1598 44.6362 43.5708 44.6362 44.4838 41.2272 16.0738 41.2272"></polygon>
            <polygon id="Fill-71" fill="#EB4724" points="11.7886 24.3988 40.1996 24.3988 41.1126 20.9898 12.7026 20.9898"></polygon>
            <polygon id="Fill-72" fill="#EB4724" points="8.0003 37.9374 36.4113 37.9374 37.3243 34.5284 8.9143 34.5284"></polygon>
            <polygon id="Fill-73" fill="#EB4724" points="0.4268 31.0798 47.2428 31.0798 48.1568 27.6708 1.3408 27.6708"></polygon>
            <polygon id="Fill-74" fill="#EB4724" points="198.9012 28.623 198.9012 6.656 214.4462 6.656 214.4462 10.773 203.5772 10.773 203.5772 15.416 214.2152 15.416 214.2152 19.533 203.5772 19.533 203.5772 24.506 214.4462 24.506 214.4462 28.623"></polygon>
            <path d="M228.0699,28.623 L228.0699,19.006 C228.0699,16.8 226.9169,16.042 225.1389,16.042 C223.4919,16.042 222.2079,16.964 221.5159,17.92 L221.5159,28.623 L217.3339,28.623 L217.3339,12.716 L221.5159,12.716 L221.5159,14.791 C222.5369,13.572 224.4799,12.321 227.0819,12.321 C230.5729,12.321 232.2519,14.297 232.2519,17.393 L232.2519,28.623 L228.0699,28.623 Z" id="Fill-75" fill="#EB4724"></path>
            <path d="M242.7065,15.6471 C240.1045,15.6471 238.9845,17.5901 238.7875,19.1711 L246.6255,19.1711 C246.5265,17.6561 245.4725,15.6471 242.7065,15.6471 M234.4735,20.6531 C234.4735,16.0421 237.8655,12.3211 242.7065,12.3211 C247.4485,12.3211 250.6765,15.8771 250.6765,21.0811 L250.6765,22.0031 L238.8535,22.0031 C239.1165,24.0121 240.7305,25.6921 243.4315,25.6921 C244.7815,25.6921 246.6585,25.0991 247.6795,24.1111 L249.5235,26.8121 C247.9425,28.2611 245.4405,29.0181 242.9705,29.0181 C238.1285,29.0181 234.4735,25.7581 234.4735,20.6531" id="Fill-77" fill="#EB4724"></path>
            <path d="M253.0488,28.623 L253.0488,12.716 L257.2308,12.716 L257.2308,14.89 C258.3508,13.473 260.3278,12.321 262.3028,12.321 L262.3028,16.405 C262.0068,16.339 261.6118,16.306 261.1508,16.306 C259.7678,16.306 257.9228,17.096 257.2308,18.117 L257.2308,28.623 L253.0488,28.623 Z" id="Fill-79" fill="#EB4724"></path>
            <path d="M275.2204,22.9913 L275.2204,17.8533 C274.5284,16.8003 273.0144,16.0423 271.6304,16.0423 C269.2594,16.0423 267.6124,17.6893 267.6124,20.4223 C267.6124,23.1563 269.2594,24.8033 271.6304,24.8033 C273.0144,24.8033 274.5284,24.0123 275.2204,22.9913 M263.9904,32.7073 L265.8674,29.6773 C267.1514,31.0933 268.8314,31.6533 270.8404,31.6533 C272.8494,31.6533 275.2204,30.7643 275.2204,27.6353 L275.2204,26.0213 C273.9684,27.6023 272.2564,28.5243 270.3134,28.5243 C266.3284,28.5243 263.2984,25.7253 263.2984,20.4223 C263.2984,15.2193 266.2954,12.3213 270.3134,12.3213 C272.2234,12.3213 273.9354,13.1443 275.2204,14.7583 L275.2204,12.7163 L279.4364,12.7163 L279.4364,27.5363 C279.4364,33.5963 274.7594,35.0783 270.8404,35.0783 C268.1074,35.0783 265.9994,34.4523 263.9904,32.7073" id="Fill-81" fill="#EB4724"></path>
            <path d="M283.3998,31.0931 C283.7618,31.2581 284.3218,31.3561 284.7168,31.3561 C285.8038,31.3561 286.5288,31.0601 286.9238,30.2041 L287.5168,28.8531 L281.0618,12.7161 L285.5408,12.7161 L289.6898,23.7821 L293.8398,12.7161 L298.3518,12.7161 L290.8758,31.2251 C289.6898,34.2221 287.5828,35.0121 284.8488,35.0781 C284.3548,35.0781 283.3008,34.9791 282.7738,34.8471 L283.3998,31.0931 Z" id="Fill-83" fill="#EB4724"></path>
            <path d="M115.9332,17.6561 C115.9332,13.7701 113.5622,10.7731 109.0502,10.7731 L105.0652,10.7731 L105.0652,24.5061 L109.0502,24.5061 C113.3972,24.5061 115.9332,21.3771 115.9332,17.6561 L115.9332,17.6561 Z M100.3882,28.6231 L100.3882,6.6561 L109.0502,6.6561 C115.9332,6.6561 120.7082,11.0361 120.7082,17.6561 C120.7082,24.2761 115.9332,28.6231 109.0502,28.6231 L100.3882,28.6231 Z" id="Fill-85" fill="#0A4056"></path>
            <path d="M123.111,28.623 L127.294,28.623 L127.294,12.716 L123.111,12.716 L123.111,28.623 Z M122.683,8.5 C122.683,7.117 123.836,6.03 125.186,6.03 C126.569,6.03 127.689,7.117 127.689,8.5 C127.689,9.884 126.569,11.003 125.186,11.003 C123.836,11.003 122.683,9.884 122.683,8.5 L122.683,8.5 Z" id="Fill-87" fill="#0A4056"></path>
            <path d="M141.7706,22.9913 L141.7706,17.8533 C141.0786,16.8003 139.5646,16.0423 138.1806,16.0423 C135.8096,16.0423 134.1626,17.6893 134.1626,20.4223 C134.1626,23.1563 135.8096,24.8033 138.1806,24.8033 C139.5646,24.8033 141.0786,24.0123 141.7706,22.9913 M130.5406,32.7073 L132.4176,29.6773 C133.7016,31.0933 135.3816,31.6533 137.3906,31.6533 C139.3996,31.6533 141.7706,30.7643 141.7706,27.6353 L141.7706,26.0213 C140.5186,27.6023 138.8066,28.5243 136.8636,28.5243 C132.8786,28.5243 129.8486,25.7253 129.8486,20.4223 C129.8486,15.2193 132.8456,12.3213 136.8636,12.3213 C138.7736,12.3213 140.4856,13.1443 141.7706,14.7583 L141.7706,12.7163 L145.9866,12.7163 L145.9866,27.5363 C145.9866,33.5963 141.3096,35.0783 137.3906,35.0783 C134.6576,35.0783 132.5496,34.4523 130.5406,32.7073" id="Fill-89" fill="#0A4056"></path>
            <path d="M149.061,28.623 L153.244,28.623 L153.244,12.716 L149.061,12.716 L149.061,28.623 Z M148.633,8.5 C148.633,7.117 149.785,6.03 151.136,6.03 C152.519,6.03 153.639,7.117 153.639,8.5 C153.639,9.884 152.519,11.003 151.136,11.003 C149.785,11.003 148.633,9.884 148.633,8.5 L148.633,8.5 Z" id="Fill-90" fill="#0A4056"></path>
            <path d="M158.3101,24.6709 L158.3101,16.3719 L155.6761,16.3719 L155.6761,12.7159 L158.3101,12.7159 L158.3101,8.3689 L162.5261,8.3689 L162.5261,12.7159 L165.7531,12.7159 L165.7531,16.3719 L162.5261,16.3719 L162.5261,23.5509 C162.5261,24.5389 163.0531,25.2969 163.9751,25.2969 C164.6011,25.2969 165.1931,25.0659 165.4241,24.8359 L166.3131,27.9969 C165.6871,28.5569 164.5681,29.0179 162.8221,29.0179 C159.8911,29.0179 158.3101,27.5029 158.3101,24.6709" id="Fill-91" fill="#0A4056"></path>
            <path d="M178.25,24.8028 L178.25,22.8268 C177.558,21.9048 176.241,21.4438 174.891,21.4438 C173.244,21.4438 171.894,22.2998 171.894,23.8478 C171.894,25.3298 173.244,26.1858 174.891,26.1858 C176.241,26.1858 177.558,25.7248 178.25,24.8028 L178.25,24.8028 Z M178.25,28.6228 L178.25,26.9768 C177.163,28.2608 175.286,29.0188 173.211,29.0188 C170.675,29.0188 167.678,27.3058 167.678,23.7488 C167.678,20.0268 170.675,18.6108 173.211,18.6108 C175.319,18.6108 177.196,19.3028 178.25,20.5538 L178.25,18.4138 C178.25,16.7998 176.867,15.7458 174.759,15.7458 C173.046,15.7458 171.465,16.3718 170.115,17.6228 L168.534,14.8238 C170.478,13.1108 172.981,12.3208 175.484,12.3208 C179.106,12.3208 182.433,13.7698 182.433,18.3478 L182.433,28.6228 L178.25,28.6228 Z" id="Fill-92" fill="#0A4056"></path>
            <polygon id="Fill-93" fill="#0A4056" points="185.34 28.623 189.523 28.623 189.523 6.656 185.34 6.656"></polygon>
            <path d="M56.2495,0.3755 L38.0485,0.3755 L35.2455,10.8385 L53.9475,10.8385 C78.9085,10.8385 73.6385,48.0895 44.5835,48.0895 L25.2635,48.0895 L22.4605,58.5515 L42.2825,58.5515 C91.9675,58.5515 94.7615,0.3755 56.2495,0.3755" id="Fill-94" fill="#0A4056"></path>
            <text id="cloud-solutions" font-family="ProximaNova-Regular, Proxima Nova" font-size="16.4825" font-weight="normal" letter-spacing="5.9000001" fill="#0A4056">
                <tspan x="100.3896" y="52.5500743">cloud solution</tspan>
                <tspan x="284.043809" y="52.5500743">s</tspan>
            </text>
        </g>
    </g>
</svg>