<svg xmlns="http://www.w3.org/2000/svg" width="244" height="48" viewBox="0 0 244 48">
    <g fill="none" fill-rule="evenodd">
        <path fill="#EF4223" d="M18.387 14.322h23.185l.745-2.774H19.133zM12.371 36.314h23.185l.745-2.773H13.117zM9.62 19.85h23.185l.745-2.774H10.366zM6.529 30.864h23.185l.745-2.773H7.275zM.348 25.285h38.205l.746-2.773H1.094zM162.314 33.05V15.177H175v3.35h-8.87v3.777h8.681v3.349h-8.681V29.7H175v3.35zM186.117 33.05v-7.825c0-1.794-.94-2.411-2.392-2.411-1.344 0-2.391.75-2.956 1.528v8.707h-3.413V20.108h3.413v1.688c.833-.992 2.419-2.01 4.542-2.01 2.849 0 4.219 1.608 4.219 4.127v9.136h-3.413zM198.061 22.493c-2.123 0-3.037 1.58-3.198 2.867h6.397c-.081-1.233-.941-2.867-3.199-2.867m-6.718 4.072c0-3.751 2.768-6.778 6.718-6.778 3.87 0 6.504 2.893 6.504 7.126v.75h-9.648c.215 1.635 1.532 3.002 3.736 3.002 1.102 0 2.634-.483 3.467-1.286l1.505 2.197c-1.29 1.179-3.332 1.795-5.348 1.795-3.951 0-6.934-2.653-6.934-6.806M206.501 33.05V20.107h3.413v1.769c.914-1.153 2.527-2.09 4.14-2.09v3.322a4.53 4.53 0 0 0-.941-.08c-1.129 0-2.634.642-3.199 1.473v8.547h-3.413zM224.595 28.467v-4.18c-.565-.856-1.8-1.473-2.93-1.473-1.935 0-3.279 1.34-3.279 3.563 0 2.225 1.344 3.565 3.279 3.565 1.13 0 2.365-.644 2.93-1.475m-9.165 7.905l1.532-2.465c1.048 1.152 2.419 1.608 4.058 1.608 1.64 0 3.575-.724 3.575-3.27v-1.312c-1.022 1.286-2.42 2.036-4.005 2.036-3.252 0-5.724-2.277-5.724-6.592 0-4.232 2.445-6.59 5.724-6.59 1.559 0 2.956.67 4.005 1.982v-1.66h3.44v12.056c0 4.93-3.817 6.136-7.015 6.136-2.23 0-3.95-.51-5.59-1.929M231.27 35.059c.295.134.752.214 1.074.214.887 0 1.479-.241 1.801-.937l.484-1.1-5.268-13.128h3.656l3.385 9.003 3.387-9.003h3.682l-6.1 15.058c-.969 2.438-2.688 3.081-4.92 3.135-.402 0-1.262-.08-1.692-.188l.51-3.054z"/>
        <path fill="#123F55" d="M94.608 24.127c0-3.161-1.935-5.6-5.617-5.6h-3.252V29.7h3.252c3.547 0 5.617-2.546 5.617-5.573zm-12.686 8.922V15.178h7.069c5.617 0 9.513 3.563 9.513 8.949 0 5.386-3.896 8.922-9.513 8.922h-7.069zM100.465 33.05h3.414V20.107h-3.414v12.941zm-.35-16.372c0-1.125.942-2.01 2.043-2.01 1.13 0 2.043.885 2.043 2.01a2.038 2.038 0 0 1-2.043 2.036c-1.101 0-2.042-.91-2.042-2.036zM115.692 28.467v-4.18c-.564-.856-1.8-1.473-2.93-1.473-1.934 0-3.278 1.34-3.278 3.563 0 2.225 1.344 3.565 3.279 3.565 1.13 0 2.365-.644 2.93-1.475m-9.165 7.905l1.532-2.465c1.048 1.152 2.419 1.608 4.058 1.608 1.64 0 3.574-.724 3.574-3.27v-1.312c-1.021 1.286-2.418 2.036-4.004 2.036-3.252 0-5.725-2.277-5.725-6.592 0-4.232 2.446-6.59 5.725-6.59 1.559 0 2.956.67 4.004 1.982v-1.66h3.44v12.056c0 4.93-3.816 6.136-7.014 6.136-2.23 0-3.95-.51-5.59-1.929M121.642 33.05h3.413V20.107h-3.413v12.941zm-.35-16.372c0-1.125.94-2.01 2.043-2.01 1.129 0 2.043.885 2.043 2.01a2.038 2.038 0 0 1-2.043 2.036c-1.102 0-2.043-.91-2.043-2.036zM129.19 29.834v-6.752h-2.15v-2.974h2.15V16.57h3.44v3.537h2.633v2.974h-2.633v5.84c0 .805.43 1.421 1.182 1.421.511 0 .994-.188 1.183-.375l.725 2.572c-.51.455-1.424.83-2.848.83-2.392 0-3.682-1.232-3.682-3.536M145.462 29.941v-1.607c-.565-.75-1.64-1.125-2.742-1.125-1.344 0-2.445.696-2.445 1.955 0 1.206 1.101 1.902 2.445 1.902 1.102 0 2.177-.375 2.742-1.125zm0 3.108v-1.34c-.888 1.046-2.42 1.662-4.113 1.662-2.07 0-4.515-1.393-4.515-4.287 0-3.028 2.446-4.18 4.515-4.18 1.72 0 3.252.563 4.113 1.58v-1.74c0-1.314-1.13-2.171-2.85-2.171-1.397 0-2.687.51-3.79 1.527l-1.29-2.277c1.587-1.394 3.63-2.037 5.672-2.037 2.956 0 5.671 1.18 5.671 4.904v8.36h-3.413zM151.247 33.05h3.414V15.177h-3.414zM45.903.305H31.05l-2.288 8.513h15.262c20.37 0 16.069 30.306-7.641 30.306H20.616l-2.287 8.511h16.176C75.05 47.635 77.33.305 45.903.305"/>
    </g>
</svg>
